<svg width="222" height="16" viewBox="0 0 222 16" fill="none" xmlns="http://www.w3.org/2000/svg">
<path d="M0.408 12H6.968V10.8H1.688V0.079999H0.408V12ZM12.748 12.192C13.548 12.192 14.2733 12 14.924 11.616C15.5853 11.232 16.1133 10.704 16.508 10.032C16.9027 9.34933 17.1 8.57067 17.1 7.696C17.1 6.832 16.908 6.064 16.524 5.392C16.1507 4.72 15.6333 4.192 14.972 3.808C14.3213 3.424 13.58 3.232 12.748 3.232C11.916 3.232 11.1693 3.42933 10.508 3.824C9.85733 4.208 9.34 4.736 8.956 5.408C8.572 6.08 8.38 6.84267 8.38 7.696C8.38 8.56 8.572 9.33333 8.956 10.016C9.35067 10.688 9.87867 11.2213 10.54 11.616C11.2013 12 11.9373 12.192 12.748 12.192ZM12.748 10.992C12.172 10.992 11.6493 10.848 11.18 10.56C10.7213 10.272 10.3533 9.87733 10.076 9.376C9.79867 8.87467 9.66 8.31467 9.66 7.696C9.66 7.07733 9.79867 6.52267 10.076 6.032C10.3533 5.54133 10.7213 5.152 11.18 4.864C11.6493 4.576 12.172 4.432 12.748 4.432C13.324 4.432 13.8413 4.576 14.3 4.864C14.7693 5.152 15.1373 5.54133 15.404 6.032C15.6813 6.52267 15.82 7.07733 15.82 7.696C15.82 8.31467 15.6813 8.87467 15.404 9.376C15.1373 9.87733 14.7693 10.272 14.3 10.56C13.8413 10.848 13.324 10.992 12.748 10.992ZM22.2564 12.192C22.7897 12.192 23.2697 12.08 23.6964 11.856C24.123 11.632 24.4644 11.328 24.7204 10.944V12H25.9204V3.424H24.7204V8.528C24.7204 9.296 24.507 9.89867 24.0804 10.336C23.6644 10.7733 23.1257 10.992 22.4644 10.992C21.8137 10.992 21.2804 10.784 20.8644 10.368C20.4484 9.94133 20.2404 9.38133 20.2404 8.688V3.424H19.0404V8.832C19.0404 9.49333 19.179 10.08 19.4564 10.592C19.7444 11.0933 20.1337 11.488 20.6244 11.776C21.115 12.0533 21.659 12.192 22.2564 12.192ZM28.3883 1.84H29.5883V0.079999H28.3883V1.84ZM28.3883 12H29.5883V3.424H28.3883V12ZM35.0205 12.192C35.6178 12.192 36.1458 12.0907 36.6045 11.888C37.0632 11.6747 37.4205 11.3813 37.6765 11.008C37.9432 10.6347 38.0765 10.2133 38.0765 9.744C38.0765 9.168 37.8792 8.66667 37.4845 8.24C37.1005 7.81333 36.5618 7.49867 35.8685 7.296L34.4445 6.88C34.2952 6.83733 34.1192 6.77333 33.9165 6.688C33.7245 6.60267 33.5538 6.47467 33.4045 6.304C33.2552 6.13333 33.1805 5.904 33.1805 5.616C33.1805 5.24267 33.3245 4.93333 33.6125 4.688C33.9005 4.44267 34.2845 4.32 34.7645 4.32C35.2552 4.32 35.6978 4.45867 36.0925 4.736C36.4978 5.00267 36.8072 5.376 37.0205 5.856L38.0445 5.376C37.7992 4.704 37.3778 4.18133 36.7805 3.808C36.1938 3.424 35.5378 3.232 34.8125 3.232C34.2792 3.232 33.7938 3.33333 33.3565 3.536C32.9192 3.73867 32.5725 4.02667 32.3165 4.4C32.0605 4.77333 31.9325 5.21067 31.9325 5.712C31.9325 6.24533 32.1085 6.71467 32.4605 7.12C32.8125 7.52533 33.3832 7.84 34.1725 8.064L35.4045 8.416C35.5752 8.45867 35.7725 8.528 35.9965 8.624C36.2205 8.72 36.4178 8.85867 36.5885 9.04C36.7592 9.21067 36.8445 9.44533 36.8445 9.744C36.8445 10.1493 36.6685 10.48 36.3165 10.736C35.9645 10.9813 35.5325 11.104 35.0205 11.104C34.4872 11.104 33.9965 10.9493 33.5485 10.64C33.1112 10.3307 32.7698 9.91467 32.5245 9.392L31.5165 9.872C31.7938 10.5867 32.2418 11.152 32.8605 11.568C33.4792 11.984 34.1992 12.192 35.0205 12.192ZM44.0891 12.192C44.6758 12.192 45.2091 12.096 45.6891 11.904C46.1798 11.7013 46.6011 11.44 46.9531 11.12C47.3051 10.7893 47.5665 10.432 47.7371 10.048L46.7131 9.504C46.4465 9.952 46.0998 10.3253 45.6731 10.624C45.2465 10.9227 44.7185 11.072 44.0891 11.072C43.5771 11.072 43.0971 10.9493 42.6491 10.704C42.2011 10.4587 41.8331 10.1173 41.5451 9.68C41.2678 9.232 41.1185 8.69867 41.0971 8.08H47.8491C47.8705 7.94133 47.8865 7.808 47.8971 7.68C47.9078 7.54133 47.9131 7.41867 47.9131 7.312C47.9131 6.8 47.8225 6.304 47.6411 5.824C47.4598 5.33333 47.1985 4.896 46.8571 4.512C46.5158 4.11733 46.0998 3.808 45.6091 3.584C45.1291 3.34933 44.5798 3.232 43.9611 3.232C43.1825 3.232 42.4785 3.424 41.8491 3.808C41.2305 4.192 40.7398 4.72 40.3771 5.392C40.0145 6.05333 39.8331 6.816 39.8331 7.68C39.8331 8.544 40.0198 9.31733 40.3931 10C40.7665 10.6827 41.2731 11.2213 41.9131 11.616C42.5638 12 43.2891 12.192 44.0891 12.192ZM43.9611 4.352C44.4411 4.352 44.8785 4.464 45.2731 4.688C45.6785 4.912 45.9985 5.22133 46.2331 5.616C46.4785 6 46.6065 6.448 46.6171 6.96H41.1291C41.1931 6.42667 41.3585 5.968 41.6251 5.584C41.9025 5.18933 42.2438 4.88533 42.6491 4.672C43.0545 4.45867 43.4918 4.352 43.9611 4.352ZM55.2276 12.192C55.889 12.192 56.4863 12.0587 57.0196 11.792C57.553 11.5253 57.9583 11.184 58.2356 10.768V12H59.4356V6.112C59.4356 5.54667 59.297 5.05067 59.0196 4.624C58.753 4.18667 58.3743 3.84533 57.8836 3.6C57.4036 3.35467 56.849 3.232 56.2196 3.232C55.7396 3.232 55.2756 3.32267 54.8276 3.504C54.3796 3.67467 53.9796 3.90933 53.6276 4.208C53.2863 4.50667 53.0356 4.83733 52.8756 5.2L53.9636 5.792C54.1556 5.376 54.449 5.04 54.8436 4.784C55.2383 4.51733 55.697 4.384 56.2196 4.384C56.817 4.384 57.3023 4.544 57.6756 4.864C58.049 5.184 58.2356 5.6 58.2356 6.112V6.56L55.1316 7.072C54.1823 7.232 53.489 7.55733 53.0516 8.048C52.6143 8.53867 52.3956 9.11467 52.3956 9.776C52.3956 10.2453 52.5183 10.6613 52.7636 11.024C53.009 11.3867 53.345 11.6747 53.7716 11.888C54.1983 12.0907 54.6836 12.192 55.2276 12.192ZM53.6756 9.728C53.6756 9.33333 53.809 8.992 54.0756 8.704C54.353 8.416 54.801 8.21867 55.4196 8.112L58.2356 7.648V8.288C58.2356 8.81067 58.113 9.28533 57.8676 9.712C57.6223 10.1387 57.281 10.48 56.8436 10.736C56.4063 10.9813 55.8943 11.104 55.3076 11.104C54.8276 11.104 54.433 10.9707 54.1236 10.704C53.825 10.4373 53.6756 10.112 53.6756 9.728ZM64.8799 12.192C65.4772 12.192 66.0052 12.0907 66.4639 11.888C66.9225 11.6747 67.2799 11.3813 67.5359 11.008C67.8025 10.6347 67.9359 10.2133 67.9359 9.744C67.9359 9.168 67.7385 8.66667 67.3439 8.24C66.9599 7.81333 66.4212 7.49867 65.7279 7.296L64.3039 6.88C64.1545 6.83733 63.9785 6.77333 63.7759 6.688C63.5839 6.60267 63.4132 6.47467 63.2639 6.304C63.1145 6.13333 63.0399 5.904 63.0399 5.616C63.0399 5.24267 63.1839 4.93333 63.4719 4.688C63.7599 4.44267 64.1439 4.32 64.6239 4.32C65.1145 4.32 65.5572 4.45867 65.9519 4.736C66.3572 5.00267 66.6665 5.376 66.8799 5.856L67.9039 5.376C67.6585 4.704 67.2372 4.18133 66.6399 3.808C66.0532 3.424 65.3972 3.232 64.6719 3.232C64.1385 3.232 63.6532 3.33333 63.2159 3.536C62.7785 3.73867 62.4319 4.02667 62.1759 4.4C61.9199 4.77333 61.7919 5.21067 61.7919 5.712C61.7919 6.24533 61.9679 6.71467 62.3199 7.12C62.6719 7.52533 63.2425 7.84 64.0319 8.064L65.2639 8.416C65.4345 8.45867 65.6319 8.528 65.8559 8.624C66.0799 8.72 66.2772 8.85867 66.4479 9.04C66.6185 9.21067 66.7039 9.44533 66.7039 9.744C66.7039 10.1493 66.5279 10.48 66.1759 10.736C65.8239 10.9813 65.3919 11.104 64.8799 11.104C64.3465 11.104 63.8559 10.9493 63.4079 10.64C62.9705 10.3307 62.6292 9.91467 62.3839 9.392L61.3759 9.872C61.6532 10.5867 62.1012 11.152 62.7199 11.568C63.3385 11.984 64.0585 12.192 64.8799 12.192ZM73.0205 12.192C73.6178 12.192 74.1458 12.0907 74.6045 11.888C75.0632 11.6747 75.4205 11.3813 75.6765 11.008C75.9432 10.6347 76.0765 10.2133 76.0765 9.744C76.0765 9.168 75.8792 8.66667 75.4845 8.24C75.1005 7.81333 74.5618 7.49867 73.8685 7.296L72.4445 6.88C72.2952 6.83733 72.1192 6.77333 71.9165 6.688C71.7245 6.60267 71.5538 6.47467 71.4045 6.304C71.2552 6.13333 71.1805 5.904 71.1805 5.616C71.1805 5.24267 71.3245 4.93333 71.6125 4.688C71.9005 4.44267 72.2845 4.32 72.7645 4.32C73.2552 4.32 73.6978 4.45867 74.0925 4.736C74.4978 5.00267 74.8072 5.376 75.0205 5.856L76.0445 5.376C75.7992 4.704 75.3778 4.18133 74.7805 3.808C74.1938 3.424 73.5378 3.232 72.8125 3.232C72.2792 3.232 71.7938 3.33333 71.3565 3.536C70.9192 3.73867 70.5725 4.02667 70.3165 4.4C70.0605 4.77333 69.9325 5.21067 69.9325 5.712C69.9325 6.24533 70.1085 6.71467 70.4605 7.12C70.8125 7.52533 71.3832 7.84 72.1725 8.064L73.4045 8.416C73.5752 8.45867 73.7725 8.528 73.9965 8.624C74.2205 8.72 74.4178 8.85867 74.5885 9.04C74.7592 9.21067 74.8445 9.44533 74.8445 9.744C74.8445 10.1493 74.6685 10.48 74.3165 10.736C73.9645 10.9813 73.5325 11.104 73.0205 11.104C72.4872 11.104 71.9965 10.9493 71.5485 10.64C71.1112 10.3307 70.7698 9.91467 70.5245 9.392L69.5165 9.872C69.7938 10.5867 70.2418 11.152 70.8605 11.568C71.4792 11.984 72.1992 12.192 73.0205 12.192ZM78.1851 1.84H79.3851V0.079999H78.1851V1.84ZM78.1851 12H79.3851V3.424H78.1851V12ZM85.9054 15.52C86.6947 15.52 87.3934 15.3493 88.0014 15.008C88.62 14.6773 89.1 14.2187 89.4414 13.632C89.7934 13.056 89.9694 12.4 89.9694 11.664V3.424H88.7694V4.72C88.428 4.26133 87.9907 3.89867 87.4574 3.632C86.924 3.36533 86.3427 3.232 85.7134 3.232C84.9027 3.232 84.1774 3.424 83.5374 3.808C82.908 4.192 82.4067 4.70933 82.0334 5.36C81.6707 6.01067 81.4894 6.74133 81.4894 7.552C81.4894 8.352 81.6707 9.08267 82.0334 9.744C82.4067 10.3947 82.9134 10.912 83.5534 11.296C84.1934 11.68 84.9134 11.872 85.7134 11.872C86.3427 11.872 86.9294 11.7333 87.4734 11.456C88.0174 11.1787 88.4494 10.7893 88.7694 10.288V11.664C88.7694 12.24 88.636 12.7253 88.3694 13.12C88.1027 13.5147 87.7507 13.8133 87.3134 14.016C86.876 14.2187 86.396 14.32 85.8734 14.32C85.1907 14.32 84.6307 14.1707 84.1934 13.872C83.756 13.5733 83.452 13.2213 83.2814 12.816L82.1774 13.408C82.4654 14.0267 82.9347 14.5333 83.5854 14.928C84.2467 15.3227 85.02 15.52 85.9054 15.52ZM85.7774 10.672C85.2014 10.672 84.684 10.5333 84.2254 10.256C83.7774 9.968 83.42 9.58933 83.1534 9.12C82.8974 8.64 82.7694 8.11733 82.7694 7.552C82.7694 6.976 82.8974 6.45333 83.1534 5.984C83.42 5.51467 83.7827 5.14133 84.2414 4.864C84.7 4.576 85.212 4.432 85.7774 4.432C86.332 4.432 86.8334 4.576 87.2814 4.864C87.7294 5.14133 88.0867 5.52 88.3534 6C88.6307 6.46933 88.7694 6.98667 88.7694 7.552C88.7694 8.11733 88.6307 8.64 88.3534 9.12C88.0867 9.58933 87.7294 9.968 87.2814 10.256C86.8334 10.5333 86.332 10.672 85.7774 10.672ZM92.4351 12H93.6351V6.896C93.6351 6.128 93.8485 5.52533 94.2751 5.088C94.7018 4.65067 95.2405 4.432 95.8911 4.432C96.5525 4.432 97.0858 4.65067 97.4911 5.088C97.9071 5.51467 98.1151 6.11733 98.1151 6.896V12H99.3151V6.432C99.3151 5.824 99.1711 5.28 98.8831 4.8C98.6058 4.30933 98.2218 3.92533 97.7311 3.648C97.2511 3.37067 96.7071 3.232 96.0991 3.232C95.5658 3.232 95.0858 3.344 94.6591 3.568C94.2325 3.792 93.8911 4.096 93.6351 4.48V3.424H92.4351V12ZM105.511 12.192C106.098 12.192 106.631 12.096 107.111 11.904C107.602 11.7013 108.023 11.44 108.375 11.12C108.727 10.7893 108.988 10.432 109.159 10.048L108.135 9.504C107.868 9.952 107.522 10.3253 107.095 10.624C106.668 10.9227 106.14 11.072 105.511 11.072C104.999 11.072 104.519 10.9493 104.071 10.704C103.623 10.4587 103.255 10.1173 102.967 9.68C102.69 9.232 102.54 8.69867 102.519 8.08H109.271C109.292 7.94133 109.308 7.808 109.319 7.68C109.33 7.54133 109.335 7.41867 109.335 7.312C109.335 6.8 109.244 6.304 109.063 5.824C108.882 5.33333 108.62 4.896 108.279 4.512C107.938 4.11733 107.522 3.808 107.031 3.584C106.551 3.34933 106.002 3.232 105.383 3.232C104.604 3.232 103.9 3.424 103.271 3.808C102.652 4.192 102.162 4.72 101.799 5.392C101.436 6.05333 101.255 6.816 101.255 7.68C101.255 8.544 101.442 9.31733 101.815 10C102.188 10.6827 102.695 11.2213 103.335 11.616C103.986 12 104.711 12.192 105.511 12.192ZM105.383 4.352C105.863 4.352 106.3 4.464 106.695 4.688C107.1 4.912 107.42 5.22133 107.655 5.616C107.9 6 108.028 6.448 108.039 6.96H102.551C102.615 6.42667 102.78 5.968 103.047 5.584C103.324 5.18933 103.666 4.88533 104.071 4.672C104.476 4.45867 104.914 4.352 105.383 4.352ZM115.323 12.192C115.984 12.192 116.592 12.0533 117.147 11.776C117.701 11.4987 118.139 11.1093 118.459 10.608V12H119.659V0.079999H118.459V4.72C118.107 4.26133 117.664 3.89867 117.131 3.632C116.597 3.36533 115.995 3.232 115.323 3.232C114.512 3.232 113.787 3.42933 113.147 3.824C112.517 4.208 112.016 4.736 111.643 5.408C111.28 6.08 111.099 6.848 111.099 7.712C111.099 8.56533 111.28 9.33333 111.643 10.016C112.016 10.688 112.523 11.2213 113.163 11.616C113.803 12 114.523 12.192 115.323 12.192ZM115.387 10.992C114.811 10.992 114.293 10.848 113.835 10.56C113.387 10.272 113.029 9.88267 112.763 9.392C112.507 8.89067 112.379 8.33067 112.379 7.712C112.379 7.08267 112.507 6.52267 112.763 6.032C113.029 5.54133 113.392 5.152 113.851 4.864C114.309 4.576 114.821 4.432 115.387 4.432C115.963 4.432 116.48 4.576 116.939 4.864C117.408 5.152 117.776 5.54667 118.043 6.048C118.32 6.53867 118.459 7.09333 118.459 7.712C118.459 8.33067 118.32 8.89067 118.043 9.392C117.776 9.88267 117.408 10.272 116.939 10.56C116.48 10.848 115.963 10.992 115.387 10.992ZM125.017 15.52C125.583 15.52 126.063 15.4027 126.457 15.168C126.852 14.944 127.177 14.6453 127.433 14.272C127.7 13.8987 127.919 13.504 128.089 13.088L132.009 3.408H130.681L127.881 10.496L125.081 3.408H123.785L127.209 12L126.905 12.736C126.639 13.3547 126.367 13.7707 126.089 13.984C125.812 14.208 125.412 14.32 124.889 14.32C124.719 14.32 124.548 14.304 124.377 14.272C124.217 14.2507 124.084 14.2347 123.977 14.224V15.344C124.148 15.408 124.319 15.4507 124.489 15.472C124.671 15.504 124.847 15.52 125.017 15.52ZM137.279 12.192C138.079 12.192 138.805 12 139.455 11.616C140.117 11.232 140.645 10.704 141.039 10.032C141.434 9.34933 141.631 8.57067 141.631 7.696C141.631 6.832 141.439 6.064 141.055 5.392C140.682 4.72 140.165 4.192 139.503 3.808C138.853 3.424 138.111 3.232 137.279 3.232C136.447 3.232 135.701 3.42933 135.039 3.824C134.389 4.208 133.871 4.736 133.487 5.408C133.103 6.08 132.911 6.84267 132.911 7.696C132.911 8.56 133.103 9.33333 133.487 10.016C133.882 10.688 134.41 11.2213 135.071 11.616C135.733 12 136.469 12.192 137.279 12.192ZM137.279 10.992C136.703 10.992 136.181 10.848 135.711 10.56C135.253 10.272 134.885 9.87733 134.607 9.376C134.33 8.87467 134.191 8.31467 134.191 7.696C134.191 7.07733 134.33 6.52267 134.607 6.032C134.885 5.54133 135.253 5.152 135.711 4.864C136.181 4.576 136.703 4.432 137.279 4.432C137.855 4.432 138.373 4.576 138.831 4.864C139.301 5.152 139.669 5.54133 139.935 6.032C140.213 6.52267 140.351 7.07733 140.351 7.696C140.351 8.31467 140.213 8.87467 139.935 9.376C139.669 9.87733 139.301 10.272 138.831 10.56C138.373 10.848 137.855 10.992 137.279 10.992ZM146.788 12.192C147.321 12.192 147.801 12.08 148.228 11.856C148.654 11.632 148.996 11.328 149.252 10.944V12H150.452V3.424H149.252V8.528C149.252 9.296 149.038 9.89867 148.612 10.336C148.196 10.7733 147.657 10.992 146.996 10.992C146.345 10.992 145.812 10.784 145.396 10.368C144.98 9.94133 144.772 9.38133 144.772 8.688V3.424H143.572V8.832C143.572 9.49333 143.71 10.08 143.988 10.592C144.276 11.0933 144.665 11.488 145.156 11.776C145.646 12.0533 146.19 12.192 146.788 12.192ZM158.118 12.192C158.78 12.192 159.377 12.0587 159.91 11.792C160.444 11.5253 160.849 11.184 161.126 10.768V12H162.326V6.112C162.326 5.54667 162.188 5.05067 161.91 4.624C161.644 4.18667 161.265 3.84533 160.774 3.6C160.294 3.35467 159.74 3.232 159.11 3.232C158.63 3.232 158.166 3.32267 157.718 3.504C157.27 3.67467 156.87 3.90933 156.518 4.208C156.177 4.50667 155.926 4.83733 155.766 5.2L156.854 5.792C157.046 5.376 157.34 5.04 157.734 4.784C158.129 4.51733 158.588 4.384 159.11 4.384C159.708 4.384 160.193 4.544 160.566 4.864C160.94 5.184 161.126 5.6 161.126 6.112V6.56L158.022 7.072C157.073 7.232 156.38 7.55733 155.942 8.048C155.505 8.53867 155.286 9.11467 155.286 9.776C155.286 10.2453 155.409 10.6613 155.654 11.024C155.9 11.3867 156.236 11.6747 156.662 11.888C157.089 12.0907 157.574 12.192 158.118 12.192ZM156.566 9.728C156.566 9.33333 156.7 8.992 156.966 8.704C157.244 8.416 157.692 8.21867 158.31 8.112L161.126 7.648V8.288C161.126 8.81067 161.004 9.28533 160.758 9.712C160.513 10.1387 160.172 10.48 159.734 10.736C159.297 10.9813 158.785 11.104 158.198 11.104C157.718 11.104 157.324 10.9707 157.014 10.704C156.716 10.4373 156.566 10.112 156.566 9.728ZM167.513 15.2H168.713V10.608C169.033 11.1093 169.471 11.4987 170.025 11.776C170.58 12.0533 171.188 12.192 171.849 12.192C172.66 12.192 173.38 12 174.009 11.616C174.649 11.2213 175.151 10.688 175.513 10.016C175.887 9.33333 176.073 8.56533 176.073 7.712C176.073 6.848 175.887 6.08 175.513 5.408C175.151 4.736 174.649 4.208 174.009 3.824C173.38 3.42933 172.66 3.232 171.849 3.232C171.177 3.232 170.575 3.36533 170.041 3.632C169.508 3.89867 169.065 4.26133 168.713 4.72V3.424H167.513V15.2ZM171.785 10.992C171.209 10.992 170.687 10.848 170.217 10.56C169.759 10.272 169.391 9.88267 169.113 9.392C168.847 8.89067 168.713 8.33067 168.713 7.712C168.713 7.09333 168.847 6.53867 169.113 6.048C169.391 5.54667 169.759 5.152 170.217 4.864C170.687 4.576 171.209 4.432 171.785 4.432C172.361 4.432 172.873 4.576 173.321 4.864C173.78 5.152 174.137 5.54133 174.393 6.032C174.66 6.52267 174.793 7.08267 174.793 7.712C174.793 8.33067 174.66 8.89067 174.393 9.392C174.137 9.88267 173.78 10.272 173.321 10.56C172.873 10.848 172.361 10.992 171.785 10.992ZM178.185 12H179.385V6.72C179.385 6.016 179.572 5.472 179.945 5.088C180.318 4.704 180.814 4.512 181.433 4.512H182.185V3.312H181.641C181.118 3.312 180.665 3.40267 180.281 3.584C179.908 3.76533 179.609 4.02133 179.385 4.352V3.424H178.185V12ZM187.607 12.192C188.407 12.192 189.133 12 189.783 11.616C190.445 11.232 190.973 10.704 191.367 10.032C191.762 9.34933 191.959 8.57067 191.959 7.696C191.959 6.832 191.767 6.064 191.383 5.392C191.01 4.72 190.493 4.192 189.831 3.808C189.181 3.424 188.439 3.232 187.607 3.232C186.775 3.232 186.029 3.42933 185.367 3.824C184.717 4.208 184.199 4.736 183.815 5.408C183.431 6.08 183.239 6.84267 183.239 7.696C183.239 8.56 183.431 9.33333 183.815 10.016C184.21 10.688 184.738 11.2213 185.399 11.616C186.061 12 186.797 12.192 187.607 12.192ZM187.607 10.992C187.031 10.992 186.509 10.848 186.039 10.56C185.581 10.272 185.213 9.87733 184.935 9.376C184.658 8.87467 184.519 8.31467 184.519 7.696C184.519 7.07733 184.658 6.52267 184.935 6.032C185.213 5.54133 185.581 5.152 186.039 4.864C186.509 4.576 187.031 4.432 187.607 4.432C188.183 4.432 188.701 4.576 189.159 4.864C189.629 5.152 189.997 5.54133 190.263 6.032C190.541 6.52267 190.679 7.07733 190.679 7.696C190.679 8.31467 190.541 8.87467 190.263 9.376C189.997 9.87733 189.629 10.272 189.159 10.56C188.701 10.848 188.183 10.992 187.607 10.992ZM194.076 1.84H195.276V0.079999H194.076V1.84ZM192.476 15.52C192.988 15.52 193.452 15.4133 193.868 15.2C194.294 14.9973 194.636 14.6933 194.892 14.288C195.148 13.8827 195.276 13.3867 195.276 12.8V3.424H194.076V12.8C194.076 13.3333 193.921 13.7333 193.612 14C193.313 14.2667 192.945 14.4 192.508 14.4C192.284 14.4 192.06 14.384 191.836 14.352V15.456C191.921 15.4773 192.033 15.4933 192.172 15.504C192.3 15.5147 192.401 15.52 192.476 15.52ZM201.636 12.192C202.223 12.192 202.756 12.096 203.236 11.904C203.727 11.7013 204.148 11.44 204.5 11.12C204.852 10.7893 205.113 10.432 205.284 10.048L204.26 9.504C203.993 9.952 203.647 10.3253 203.22 10.624C202.793 10.9227 202.265 11.072 201.636 11.072C201.124 11.072 200.644 10.9493 200.196 10.704C199.748 10.4587 199.38 10.1173 199.092 9.68C198.815 9.232 198.665 8.69867 198.644 8.08H205.396C205.417 7.94133 205.433 7.808 205.444 7.68C205.455 7.54133 205.46 7.41867 205.46 7.312C205.46 6.8 205.369 6.304 205.188 5.824C205.007 5.33333 204.745 4.896 204.404 4.512C204.063 4.11733 203.647 3.808 203.156 3.584C202.676 3.34933 202.127 3.232 201.508 3.232C200.729 3.232 200.025 3.424 199.396 3.808C198.777 4.192 198.287 4.72 197.924 5.392C197.561 6.05333 197.38 6.816 197.38 7.68C197.38 8.544 197.567 9.31733 197.94 10C198.313 10.6827 198.82 11.2213 199.46 11.616C200.111 12 200.836 12.192 201.636 12.192ZM201.508 4.352C201.988 4.352 202.425 4.464 202.82 4.688C203.225 4.912 203.545 5.22133 203.78 5.616C204.025 6 204.153 6.448 204.164 6.96H198.676C198.74 6.42667 198.905 5.968 199.172 5.584C199.449 5.18933 199.791 4.88533 200.196 4.672C200.601 4.45867 201.039 4.352 201.508 4.352ZM211.496 12.192C212.029 12.192 212.53 12.096 213 11.904C213.469 11.712 213.885 11.4507 214.248 11.12C214.61 10.7893 214.882 10.416 215.064 10L213.976 9.408C213.752 9.888 213.421 10.272 212.984 10.56C212.557 10.848 212.061 10.992 211.496 10.992C210.93 10.992 210.418 10.848 209.96 10.56C209.512 10.272 209.154 9.88267 208.888 9.392C208.632 8.89067 208.504 8.33067 208.504 7.712C208.504 7.08267 208.632 6.52267 208.888 6.032C209.154 5.53067 209.512 5.14133 209.96 4.864C210.418 4.576 210.93 4.432 211.496 4.432C212.061 4.432 212.562 4.576 213 4.864C213.437 5.152 213.762 5.52533 213.976 5.984L215.064 5.424C214.882 4.99733 214.61 4.624 214.248 4.304C213.885 3.97333 213.469 3.712 213 3.52C212.53 3.328 212.029 3.232 211.496 3.232C210.653 3.232 209.912 3.42933 209.272 3.824C208.632 4.208 208.13 4.736 207.768 5.408C207.405 6.08 207.224 6.84267 207.224 7.696C207.224 8.54933 207.405 9.31733 207.768 10C208.13 10.672 208.632 11.2053 209.272 11.6C209.912 11.9947 210.653 12.192 211.496 12.192ZM220.45 12.096C220.546 12.096 220.674 12.0907 220.834 12.08C220.994 12.0693 221.138 12.048 221.266 12.016V10.928C221.18 10.9387 221.079 10.9493 220.962 10.96C220.844 10.9707 220.743 10.976 220.658 10.976C220.124 10.976 219.756 10.8373 219.554 10.56C219.351 10.2827 219.25 9.93067 219.25 9.504V4.624H221.138V3.424H219.25V1.44H218.049V2.16C218.049 2.52267 217.943 2.82667 217.73 3.072C217.516 3.30667 217.228 3.424 216.866 3.424H216.465V4.624H218.049V9.504C218.049 10.336 218.258 10.976 218.674 11.424C219.09 11.872 219.682 12.096 220.45 12.096Z" fill="#20484F"/>
</svg>
